<svg width="460" height="88" viewBox="0 0 460 88" fill="none" xmlns="http://www.w3.org/2000/svg">
<path fill-rule="evenodd" clip-rule="evenodd" d="M60.877 66.7713C30.677 55.7073 5.77699 36.6003 10.143 22.8623C13.737 11.6003 33.107 7.71634 56.832 12.2263C58.113 11.9343 59.675 11.6083 61.242 11.2963C30.595 3.54134 4.95698 6.36834 0.841984 19.1003C-3.81802 33.5233 20.842 55.3303 56.33 68.5453L60.877 66.7713ZM102.237 25.6583L102.138 25.7009C126.156 38.5669 141.666 56.9285 137.972 68.3613C134.312 79.6193 113.908 83.1683 88.086 78.4823C89.7736 78.0194 91.4102 77.3876 92.971 76.5963C110.558 77.7053 123.871 73.4233 126.771 64.2853C130.13 53.7993 115.7 37.4543 96.739 26.5343C93.2711 24.5866 89.6282 22.9685 85.858 21.7013L90.626 20.5763C90.626 20.5763 95.062 22.2763 99.926 24.5623C99.943 24.5403 99.943 24.5353 99.943 24.5353C100.203 24.6653 100.452 24.7943 100.696 24.9283L100.834 24.9944C101.299 25.2166 101.757 25.4354 102.237 25.6583ZM78.7647 38.8405C80.7854 40.0787 83.0939 41.4931 85.703 43.1333C103.69 54.4433 102.33 68.3243 90.053 74.0823C77.807 79.8143 58.858 74.4003 58.858 74.4003C71.811 74.3363 76.687 69.3383 77.887 64.7473C78.1046 63.4916 78.0404 62.2031 77.699 60.9752C77.3576 59.7473 76.7476 58.6106 75.913 57.6473C70.13 51.9983 54.93 43.9633 54.93 43.9633C58.8231 36.7563 64.0819 30.376 70.413 25.1783C64.9389 30.3694 66.8448 31.5371 78.7647 38.8405Z" fill="#00347D"/>
<path fill-rule="evenodd" clip-rule="evenodd" d="M63.836 9.50333L97.626 11.4923C69.736 13.7603 53.597 26.5573 44.677 37.8353L39.064 34.4673C48.5052 24.5426 60.3424 17.2155 73.436 13.1913L63.836 9.50333ZM53.523 43.1413L45.874 38.5603C60.054 20.0103 80.664 14.4143 94.385 12.8433C76.124 16.9403 65.166 26.5813 58.9 34.7873C56.8782 37.4174 55.0796 40.2118 53.523 43.1413Z" fill="#F38200"/>
<path fill-rule="evenodd" clip-rule="evenodd" d="M220.652 39.898C212.467 39.898 205.823 34.769 205.823 28.443C205.823 22.119 212.463 17 220.652 17C228.841 17 235.485 22.113 235.485 28.443C235.485 34.773 228.837 39.898 220.652 39.898ZM220.649 34.007C225.119 34.007 228.749 31.499 228.749 28.443C228.749 25.395 225.112 22.904 220.649 22.904C216.186 22.904 212.549 25.387 212.549 28.443C212.549 31.499 216.179 34.007 220.649 34.007ZM183.005 36.853C180 35.819 177.854 34.939 175.692 31.429C173.296 27.5595 173.278 22.5738 173.264 18.8673V18.8665C173.263 18.5502 173.261 18.2432 173.259 17.947H166.647C166.644 18.2351 166.643 18.5334 166.642 18.8405C166.628 22.5493 166.609 27.5465 164.209 31.429C163.43 32.8088 162.383 34.0187 161.129 34.9875C159.875 35.9563 158.44 36.6644 156.909 37.07C156.205 37.3466 155.601 37.8281 155.174 38.4521C154.747 39.0762 154.518 39.814 154.515 40.57C154.534 41.3949 154.879 42.1787 155.474 42.7504C156.069 43.322 156.866 43.635 157.691 43.621C157.892 43.6186 158.093 43.5979 158.291 43.559C158.328 43.5501 158.366 43.5398 158.403 43.5297L158.403 43.5297C158.465 43.5127 158.526 43.496 158.584 43.486C160.206 43.0848 161.758 42.4369 163.184 41.565C165.918 39.8041 168.203 37.4286 169.856 34.628C169.88 34.591 169.956 34.483 169.956 34.483L169.966 34.503C169.982 34.5371 170.006 34.5622 170.028 34.5853C170.043 34.6001 170.056 34.6141 170.066 34.629C171.723 37.3605 174.007 39.6574 176.73 41.329C178.156 42.2021 179.707 42.851 181.33 43.253C181.383 43.258 181.432 43.2741 181.481 43.2899C181.531 43.3061 181.579 43.322 181.63 43.325C181.825 43.3634 182.022 43.3845 182.221 43.388C183.046 43.4033 183.843 43.0904 184.438 42.5182C185.032 41.9459 185.376 41.1611 185.392 40.336C185.39 39.5833 185.163 38.8484 184.738 38.2269C184.313 37.6053 183.712 37.1259 183.011 36.851L183.005 36.853ZM290.795 31.494H287.961V18.394H282.052V69.148L287.961 64.065V37.384H290.799V69.15L296.914 64.067V18.396H290.799L290.795 31.494ZM305.294 54.378V54.413C304.504 54.5317 303.782 54.93 303.261 55.5356C302.739 56.1412 302.452 56.9139 302.452 57.713C302.452 58.5122 302.739 59.2848 303.261 59.8904C303.782 60.496 304.504 60.8943 305.294 61.013V61.054H346.955V54.378H305.294ZM394.788 64.067L388.381 69.15V18.396H394.788V64.067ZM439.085 31.494V18.394H432.669V69.142L439.085 64.054V37.384H446.515V31.494H439.085ZM353.907 18.773V18.738H384.681V25.405H379.43V46.326H384.681V52.977H353.907V52.95C353.119 52.8285 352.4 52.429 351.881 51.8237C351.362 51.2184 351.077 50.4474 351.077 49.65C351.077 48.8526 351.362 48.0816 351.881 47.4763C352.4 46.871 353.119 46.4715 353.907 46.35V46.326H357.343V25.405H353.907V25.373C353.118 25.2529 352.398 24.854 351.877 24.2485C351.357 23.6431 351.071 22.8713 351.071 22.073C351.071 21.2747 351.357 20.5029 351.877 19.8975C352.398 19.2921 353.118 18.8931 353.907 18.773ZM363.731 46.326H373.058V25.405H363.731V46.326ZM414.177 18.396C405.865 18.396 399.119 26.223 399.119 35.875C399.119 45.527 405.865 53.343 414.177 53.343C422.489 53.343 429.248 45.523 429.248 35.875C429.248 26.227 422.504 18.396 414.177 18.396ZM414.177 46.18C409.434 46.18 405.577 41.546 405.577 35.875C405.577 30.175 409.437 25.558 414.177 25.558C418.917 25.558 422.793 30.174 422.793 35.875C422.793 41.546 418.918 46.18 414.177 46.18ZM250.597 35.875C250.597 26.223 256.971 18.396 264.856 18.396C272.727 18.396 279.109 26.226 279.109 35.874C279.109 45.522 272.741 53.342 264.856 53.342C256.971 53.342 250.597 45.527 250.597 35.875ZM256.929 35.874C256.929 41.545 260.494 46.179 264.856 46.179C269.214 46.179 272.773 41.554 272.773 35.874C272.773 30.194 269.219 25.557 264.856 25.557C260.493 25.557 256.929 30.203 256.929 35.874ZM313.43 45.57H343.93V38.897H314.073C313.77 38.9025 313.469 38.8453 313.189 38.7289C312.909 38.6125 312.656 38.4394 312.446 38.2206C312.236 38.0019 312.073 37.742 311.968 37.4574C311.864 37.1729 311.819 36.8697 311.837 36.567V27.406C311.819 27.1031 311.863 26.7997 311.968 26.5149C312.072 26.2301 312.235 25.97 312.445 25.751C312.655 25.532 312.908 25.3588 313.188 25.2423C313.468 25.1258 313.769 25.0685 314.073 25.074H343.929V18.396H313.429C312.357 18.42 311.301 18.655 310.32 19.0874C309.339 19.5199 308.454 20.1414 307.713 20.9163C306.973 21.6913 306.392 22.6046 306.005 23.6041C305.618 24.6035 305.431 25.6694 305.456 26.741V37.242C305.409 39.4035 306.223 41.4951 307.718 43.0569C309.213 44.6187 311.267 45.523 313.429 45.571L313.43 45.57ZM230.974 49.841H239.854V18.453H246.227V62.294L239.878 68.938H215.29C213.138 68.8858 211.094 67.9832 209.606 66.4276C208.117 64.8721 207.306 62.7904 207.349 60.638V51.993H213.718V59.988C213.699 60.2881 213.743 60.5889 213.847 60.8712C213.95 61.1536 214.111 61.4114 214.319 61.6285C214.527 61.8455 214.778 62.0171 215.056 62.1323C215.334 62.2475 215.632 62.304 215.933 62.298H239.854V55.613H230.974V49.841ZM218.451 56.459H224.808V46.716H236.048V40.742H206.803C206.396 40.7185 205.989 40.7782 205.606 40.9177C205.223 41.0572 204.873 41.2734 204.576 41.5531C204.28 41.8327 204.044 42.17 203.883 42.5442C203.721 42.9183 203.638 43.3215 203.638 43.729C203.638 44.1365 203.721 44.5397 203.883 44.9138C204.044 45.288 204.28 45.6253 204.576 45.9049C204.873 46.1846 205.223 46.4008 205.606 46.5403C205.989 46.6798 206.396 46.7395 206.803 46.716H218.451V56.459ZM191.768 18.396H198.256V46.525L194.763 49.797C196.833 51.9618 197.973 54.8518 197.937 57.847C197.937 65.572 188.889 70.799 181.143 70.799C173.421 70.799 164.35 65.575 164.35 57.847C164.35 50.119 173.421 44.897 181.143 44.897C184.043 44.897 189.541 46.208 191.768 47.708V33.046H180.954V27.196H191.768V18.396ZM171.238 57.669C171.238 61.749 177.352 64.042 181.452 64.042C185.539 64.042 191.664 61.758 191.664 57.669C191.664 53.58 185.549 51.288 181.452 51.288C177.355 51.288 171.238 53.589 171.238 57.669Z" fill="#00347D"/>
</svg>
