<svg width="140" height="88" viewBox="0 0 140 88" fill="none" xmlns="http://www.w3.org/2000/svg">
<path fill-rule="evenodd" clip-rule="evenodd" d="M60.877 66.7713C30.677 55.7073 5.77699 36.6003 10.143 22.8623C13.737 11.6003 33.107 7.71634 56.832 12.2263C58.113 11.9343 59.675 11.6083 61.242 11.2963C30.595 3.54134 4.95698 6.36834 0.841984 19.1003C-3.81802 33.5233 20.842 55.3303 56.33 68.5453L60.877 66.7713ZM102.237 25.6583L102.138 25.7009C126.156 38.5669 141.666 56.9285 137.972 68.3613C134.312 79.6193 113.908 83.1683 88.086 78.4823C89.7736 78.0194 91.4102 77.3876 92.971 76.5963C110.558 77.7053 123.871 73.4233 126.771 64.2853C130.13 53.7993 115.7 37.4543 96.739 26.5343C93.2711 24.5866 89.6282 22.9685 85.858 21.7013L90.626 20.5763C90.626 20.5763 95.062 22.2763 99.926 24.5623C99.943 24.5403 99.943 24.5353 99.943 24.5353C100.203 24.6653 100.452 24.7943 100.696 24.9283L100.834 24.9944C101.299 25.2166 101.757 25.4354 102.237 25.6583ZM78.7647 38.8405C80.7854 40.0787 83.0939 41.4931 85.703 43.1333C103.69 54.4433 102.33 68.3243 90.053 74.0823C77.807 79.8143 58.858 74.4003 58.858 74.4003C71.811 74.3363 76.687 69.3383 77.887 64.7473C78.1046 63.4916 78.0404 62.2031 77.699 60.9752C77.3576 59.7473 76.7476 58.6106 75.913 57.6473C70.13 51.9983 54.93 43.9633 54.93 43.9633C58.8231 36.7563 64.0819 30.376 70.413 25.1783C64.9389 30.3694 66.8448 31.5371 78.7647 38.8405Z" fill="#00347D"/>
<path fill-rule="evenodd" clip-rule="evenodd" d="M63.836 9.50333L97.626 11.4923C69.736 13.7603 53.597 26.5573 44.677 37.8353L39.064 34.4673C48.5052 24.5426 60.3424 17.2155 73.436 13.1913L63.836 9.50333ZM53.523 43.1413L45.874 38.5603C60.054 20.0103 80.664 14.4143 94.385 12.8433C76.124 16.9403 65.166 26.5813 58.9 34.7873C56.8782 37.4174 55.0796 40.2118 53.523 43.1413Z" fill="#F38200"/>
</svg>
